<svg xmlns="http://www.w3.org/2000/svg"  viewBox="0 0 24 24" width="24px" height="24px"><path d="M 12 2.0078125 C 6.477 2.0078125 2 6.4848125 2 12.007812 C 2 17.468879 6.378963 21.899191 11.816406 21.998047 C 11.81971 21.998107 11.822867 21.999943 11.826172 22 A 1.0001 1.0001 0 0 0 12.158203 22 C 17.607512 21.914647 22 17.477454 22 12.007812 C 22 6.4858125 17.523 2.0078125 12 2.0078125 z M 12 4.0078125 C 16.411 4.0078125 20 7.5968125 20 12.007812 C 20 16.079332 16.939603 19.444663 13 19.939453 L 13 14 L 15 14 A 1.0001 1.0001 0 1 0 15 12 L 13 12 L 13 11 C 13 10.43497 13.43497 10 14 10 L 15 10 A 1.0001 1.0001 0 1 0 15 8 L 14 8 C 12.35503 8 11 9.3550302 11 11 L 11 12 L 10 12 A 1.0001 1.0001 0 1 0 10 14 L 11 14 L 11 19.939453 C 7.0603971 19.444663 4 16.079332 4 12.007812 C 4 7.5968125 7.589 4.0078125 12 4.0078125 z"/></svg>